# xmcd
#
# Track frame offsets:
#	150
#	11172
#	20867
#	35108
#	46275
#	56327
#	68942
#	77876
#
# Disc length: 1213 seconds
#
# Revision: 0
# Processed by: cddbd v1.5.1PL0 Copyright (c) Steve Scherf et al.
# Submitted via: audiograbber 1.83.01
#
DISCID=6c04bb08
DTITLE=The Twang - A Fistful Of Presents
DYEAR=2003
DGENRE=Country
TTITLE0=Jingle Bells
TTITLE1=Here Comes Santa Claus
TTITLE2=Christmas Time In Texas
TTITLE3=Santa Claus Is Back In Town
TTITLE4=Let It Snow
TTITLE5=Silent Night
TTITLE6=Last Christmas
TTITLE7=White Christmas
EXTD=
EXTT0=
EXTT1=
EXTT2=
EXTT3=
EXTT4=
EXTT5=
EXTT6=
EXTT7=
PLAYORDER=
